<?xml version="1.0" standalone="no"?>
<!DOCTYPE svg PUBLIC "-//W3C//DTD SVG 20010904//EN"
 "http://www.w3.org/TR/2001/REC-SVG-20010904/DTD/svg10.dtd">
<svg version="1.0" xmlns="http://www.w3.org/2000/svg"
 width="817.000000pt" height="817.000000pt" viewBox="0 0 817.000000 817.000000"
 preserveAspectRatio="xMidYMid meet">
<metadata>
Created by potrace 1.14, written by Peter Selinger 2001-2017
</metadata>
<g transform="translate(0.000000,817.000000) scale(0.100000,-0.100000)"
fill="#000000" stroke="none">
<path d="M3280 6587 c-3 -3 -27 -7 -55 -11 -68 -8 -107 -15 -125 -23 -8 -3
-21 -7 -28 -9 -36 -7 -134 -64 -164 -95 -36 -38 -76 -99 -92 -139 -46 -116
-45 -85 -43 -1944 2 -1750 2 -1759 22 -1763 60 -12 356 -5 425 10 8 2 33 7 55
12 22 4 67 20 100 35 95 43 141 96 171 195 17 57 18 163 19 1875 1 998 -1
1821 -3 1827 -2 7 -8 10 -13 7 -5 -3 -9 -1 -9 3 0 5 -11 10 -26 11 -18 1 -23
-2 -18 -11 5 -7 1 -6 -10 2 -24 20 -166 23 -173 4 -4 -11 -8 -10 -17 2 -6 9
-14 14 -16 12z"/>
<path d="M5258 5584 c-2 -1 -34 -5 -73 -9 -38 -3 -72 -8 -75 -10 -4 -2 -22 -7
-40 -10 -51 -9 -179 -64 -240 -104 -47 -30 -174 -132 -190 -152 -3 -4 -48 -53
-101 -110 -53 -57 -108 -117 -123 -133 -121 -133 -185 -204 -211 -231 -16 -17
-48 -52 -70 -76 -22 -24 -87 -96 -145 -159 -58 -63 -109 -120 -115 -126 -34
-38 -188 -205 -227 -248 l-47 -50 27 -48 c15 -26 30 -48 35 -48 4 0 7 -5 7
-11 0 -5 18 -37 40 -69 22 -32 40 -64 40 -69 0 -6 5 -11 10 -11 6 0 10 -7 10
-15 0 -8 5 -15 10 -15 6 0 10 -4 10 -9 0 -6 13 -29 29 -53 15 -24 142 -223
282 -443 139 -220 257 -401 261 -403 4 -2 8 -9 8 -16 0 -32 139 -193 208 -242
67 -47 181 -95 257 -109 135 -25 339 -22 445 5 19 5 44 11 55 13 30 5 129 38
138 47 5 4 -30 65 -77 135 -47 70 -86 131 -86 135 0 5 -4 10 -8 12 -8 3 -143
203 -151 223 -2 6 -7 12 -10 15 -3 3 -107 158 -231 345 -124 187 -227 342
-230 345 -9 9 -140 210 -140 214 0 3 19 25 43 49 23 25 101 107 172 183 72 75
148 156 170 179 22 24 93 99 159 169 65 69 121 126 125 126 3 0 18 -21 34 -48
36 -62 45 -76 88 -142 19 -30 47 -73 61 -95 14 -22 33 -53 44 -69 10 -16 24
-36 29 -45 68 -110 110 -177 115 -181 3 -3 26 -38 50 -78 59 -95 442 -698 572
-899 21 -32 41 -65 45 -73 3 -8 9 -17 13 -20 13 -11 40 -60 40 -73 0 -8 -32
-81 -71 -163 -117 -244 -192 -403 -281 -594 -17 -36 -35 -72 -39 -80 -5 -8
-14 -26 -20 -40 -5 -13 -26 -58 -46 -100 -100 -209 -133 -282 -133 -287 0 -4
-6 -14 -13 -22 -8 -9 -23 -40 -35 -68 -24 -61 -26 -58 64 -87 105 -34 192 -47
317 -45 195 3 336 60 422 171 17 21 35 45 42 52 21 23 140 261 148 296 1 3 14
32 29 65 15 33 46 101 68 150 22 50 50 113 63 140 13 28 51 113 85 190 34 77
71 158 81 179 10 22 19 45 19 52 0 6 7 17 15 24 8 7 15 18 15 25 0 8 16 49 36
92 41 87 51 114 52 127 0 5 4 12 9 15 5 3 19 31 32 61 13 30 55 125 93 210 39
85 79 175 90 200 11 25 31 70 45 100 14 30 32 71 40 90 9 19 28 62 43 95 15
33 44 98 64 145 21 47 51 112 66 145 16 33 40 87 55 120 15 33 40 88 56 123
16 35 29 65 29 67 0 2 16 39 36 82 19 43 52 114 71 158 20 44 51 112 70 150
18 39 33 73 33 77 0 3 15 39 34 80 33 70 173 381 183 404 5 13 -23 25 -122 53
-201 57 -405 40 -560 -49 -50 -29 -165 -133 -165 -150 0 -5 -3 -10 -7 -12 -21
-9 -123 -194 -123 -223 0 -8 -4 -15 -10 -15 -5 0 -10 -7 -10 -16 0 -8 -5 -25
-12 -37 -7 -12 -13 -26 -14 -32 -1 -5 -13 -32 -25 -60 -13 -27 -24 -52 -24
-55 0 -3 -11 -27 -23 -54 -12 -27 -22 -50 -22 -51 0 -1 -8 -20 -17 -41 -9 -22
-16 -42 -15 -46 1 -5 -2 -8 -8 -8 -6 0 -9 -3 -8 -7 1 -5 -6 -26 -16 -48 -9
-22 -31 -74 -48 -115 -16 -41 -34 -84 -38 -95 -5 -11 -18 -42 -30 -70 -12 -27
-28 -63 -35 -80 -8 -16 -28 -64 -45 -105 -17 -41 -35 -82 -39 -91 -5 -8 -23
-50 -41 -92 l-32 -77 -35 57 c-20 32 -42 69 -50 83 -8 14 -26 44 -41 67 -15
24 -79 127 -142 229 -63 103 -136 221 -162 263 -26 42 -56 92 -68 111 -11 19
-47 78 -80 130 -34 52 -64 102 -67 110 -4 8 -9 17 -12 20 -3 3 -11 14 -18 25
-36 61 -151 248 -182 295 -20 30 -36 57 -36 60 -1 3 -21 37 -46 75 -25 39 -48
78 -52 87 -6 17 -76 41 -147 52 -19 3 -48 8 -65 11 -31 6 -213 14 -217 9z"/>
<path d="M1128 5574 c-2 -1 -37 -5 -78 -9 -124 -10 -138 -12 -235 -30 -264
-50 -495 -179 -637 -355 -67 -83 -120 -191 -148 -300 -19 -71 -20 -80 -7 -80
7 0 5 -4 -3 -10 -13 -7 -15 -29 -13 -127 2 -129 7 -180 17 -190 3 -3 6 -16 6
-28 0 -12 3 -25 7 -29 4 -3 8 -14 10 -24 1 -10 24 -57 50 -106 81 -149 239
-292 401 -362 31 -14 65 -29 74 -34 20 -11 198 -57 253 -66 22 -3 42 -7 45 -9
3 -2 25 -6 50 -10 25 -4 47 -8 50 -10 3 -2 24 -6 46 -9 22 -4 51 -9 64 -12 14
-3 36 -7 50 -10 87 -16 140 -27 175 -34 22 -5 56 -12 75 -15 19 -3 62 -13 95
-21 33 -9 65 -17 70 -18 32 -7 114 -51 138 -74 58 -55 56 -151 -5 -211 -27
-26 -93 -57 -148 -68 -93 -19 -311 -19 -585 2 -268 20 -458 25 -533 13 -77
-12 -155 -50 -204 -101 -57 -58 -68 -73 -68 -91 0 -8 -4 -17 -9 -20 -23 -14
-53 -176 -54 -286 0 -48 12 -171 17 -177 1 -1 24 -5 52 -8 106 -11 161 -17
204 -20 65 -5 218 -17 265 -20 22 -2 40 -4 40 -4 0 -10 673 -16 780 -7 96 9
217 23 255 31 14 3 34 7 45 9 89 18 201 56 305 103 108 50 254 170 321 263 70
97 133 257 147 373 12 104 6 252 -13 337 -3 14 -8 35 -11 48 -7 33 -39 112
-64 158 -105 188 -304 338 -550 413 -41 13 -82 25 -90 29 -20 7 -28 9 -74 16
-21 4 -48 8 -60 11 -12 3 -34 7 -51 10 -16 3 -41 8 -55 11 -41 8 -193 36 -220
40 -14 2 -45 8 -70 14 -25 5 -63 12 -85 16 -22 4 -44 8 -50 9 -5 2 -28 6 -50
9 -22 4 -58 12 -80 17 -22 6 -45 12 -52 13 -7 1 -16 5 -19 9 -4 4 -14 7 -22 7
-24 0 -91 54 -103 83 -22 52 -9 113 30 145 26 22 114 61 151 67 19 4 53 9 75
11 48 7 340 6 445 0 41 -3 122 -8 180 -11 270 -18 373 -9 463 36 131 67 205
219 211 434 3 120 -12 198 -39 200 -11 2 -47 6 -80 10 -33 3 -73 8 -90 10 -16
2 -61 6 -100 10 -38 3 -95 7 -125 10 -165 14 -772 29 -782 19z"/>
</g>
</svg>
